<?xml version="1.0" encoding="UTF-8" standalone="no"?><!DOCTYPE svg PUBLIC "-//W3C//DTD SVG 1.1//EN" "http://www.w3.org/Graphics/SVG/1.1/DTD/svg11.dtd"><svg width="100%" height="100%" viewBox="0 0 308 308" version="1.1" xmlns="http://www.w3.org/2000/svg" xmlns:xlink="http://www.w3.org/1999/xlink" xml:space="preserve" xmlns:serif="http://www.serif.com/" style="fill-rule:evenodd;clip-rule:evenodd;stroke-linejoin:round;stroke-miterlimit:2;"><path id="location" d="M153.6,144.785c-14.606,0 -26.444,-11.838 -26.444,-26.443c0,-14.606 11.838,-26.444 26.444,-26.444c14.606,-0 26.444,11.838 26.444,26.444c-0,14.605 -11.838,26.443 -26.444,26.443Zm0,-70.517c-24.337,0 -44.073,19.728 -44.073,44.074c-0,24.345 19.736,44.073 44.073,44.073c24.337,-0 44.073,-19.728 44.073,-44.073c0,-24.346 -19.736,-44.074 -44.073,-44.074Zm0,193.922c-14.659,0.079 -88.146,-112.995 -88.146,-149.848c-0,-48.675 39.463,-88.147 88.146,-88.147c48.683,0 88.146,39.472 88.146,88.147c0,36.36 -73.716,149.927 -88.146,149.848Zm0,-255.624c-58.414,0 -105.775,47.361 -105.775,105.776c-0,44.231 88.19,176.389 105.775,176.292c17.312,0.097 105.775,-132.66 105.775,-176.292c0,-58.415 -47.361,-105.776 -105.775,-105.776Z" style="fill:#fff;stroke:#fff;stroke-width:0.24px;"/></svg>