<?xml version="1.0" encoding="UTF-8" standalone="no"?><!DOCTYPE svg PUBLIC "-//W3C//DTD SVG 1.1//EN" "http://www.w3.org/Graphics/SVG/1.1/DTD/svg11.dtd"><svg width="100%" height="100%" viewBox="0 0 308 308" version="1.1" xmlns="http://www.w3.org/2000/svg" xmlns:xlink="http://www.w3.org/1999/xlink" xml:space="preserve" xmlns:serif="http://www.serif.com/" style="fill-rule:evenodd;clip-rule:evenodd;stroke-linejoin:round;stroke-miterlimit:2;"><path d="M13.547,69.568c-0,-30.94 25.081,-56.021 56.021,-56.021l168.064,-0c30.939,-0 56.021,25.081 56.021,56.021l0,168.064c0,19.906 -10.382,37.387 -26.027,47.324c-8.672,5.507 -18.96,8.697 -29.994,8.697l-168.064,0c-30.94,0 -56.021,-25.082 -56.021,-56.021l-0,-168.064Zm56.021,-28.011c-15.47,0 -28.011,12.541 -28.011,28.011l0,168.064c0,15.47 12.541,28.011 28.011,28.011l84.032,-0l-0,-98.038l-14.005,0c-7.735,0 -14.006,-6.27 -14.006,-14.005c0,-7.735 6.271,-14.005 14.006,-14.005l14.005,-0l-0,-21.008c-0,-27.073 21.946,-49.019 49.019,-49.019l8.403,-0c7.735,-0 14.005,6.27 14.005,14.005c0,7.735 -6.27,14.006 -14.005,14.006l-8.403,-0c-11.602,-0 -21.008,9.405 -21.008,21.008l-0,21.008l29.411,-0c7.735,-0 14.005,6.27 14.005,14.005c0,7.735 -6.27,14.005 -14.005,14.005l-29.411,0l-0,98.038l56.021,-0c15.47,-0 28.011,-12.541 28.011,-28.011l-0,-168.064c-0,-15.47 -12.541,-28.011 -28.011,-28.011l-168.064,0Z" style="fill:#fff;stroke:#fff;stroke-width:0.24px;"/></svg>