<?xml version="1.0" encoding="UTF-8" standalone="no"?><!DOCTYPE svg PUBLIC "-//W3C//DTD SVG 1.1//EN" "http://www.w3.org/Graphics/SVG/1.1/DTD/svg11.dtd"><svg width="100%" height="100%" viewBox="0 0 120 120" version="1.1" xmlns="http://www.w3.org/2000/svg" xmlns:xlink="http://www.w3.org/1999/xlink" xml:space="preserve" xmlns:serif="http://www.serif.com/" style="fill-rule:evenodd;clip-rule:evenodd;stroke-linejoin:round;stroke-miterlimit:2;"><g id="Layer2"><path d="M89.845,13.672c-9.604,-4.517 -19.204,-9.044 -28.8,-13.58l-60.252,28.399l10.309,4.978l-0.853,0.137l0,53.167l5.079,0l-0,-48.886l3.656,-0.63l1.422,0.686l0,26.855c0,4.642 26.439,17.943 31.736,20.564c5.58,2.738 12.136,2.689 17.674,-0.133c31.847,-16.302 31.847,-19.303 31.847,-20.431l0,-26.855l19.573,-9.431c0,-0 -19.299,-9.147 -31.391,-14.84Zm6.74,50.268c-9.324,6.206 -19.038,11.808 -29.08,16.77c-4.108,2.096 -8.973,2.134 -13.113,0.101c-10.079,-4.795 -19.747,-10.409 -28.907,-16.785l-0,-23.64l35.55,17.129l35.55,-17.129l-0,23.554Zm-35.55,-12.051l-33.438,-16.115l32.854,-5.662l-0.864,-5.013l-39.867,6.876l-7.125,-3.433l48.435,-22.828c4.19,1.996 43.284,20.385 48.459,22.823l-48.454,23.352Z" style="fill:#00e1ea;fill-rule:nonzero;stroke:#00e1ea;stroke-width:0.1px;"/><g transform="matrix(16.6112,0,0,16.6112,104.866,100.34)"></g><text x="14.307px" y="100.34px" style="font-family:'ArialMT', 'Arial', sans-serif;font-size:16.611px;fill:#00e1ea;">C<tspan x="26.887px 40.392px 52.972px 65.552px 77.215px 88.879px 100.251px " y="100.34px 100.34px 100.34px 100.34px 100.34px 100.34px 100.34px ">OURSES/</tspan></text><g transform="matrix(16.6112,0,0,16.6112,111.762,115.154)"></g><text x="10.473px" y="115.154px" style="font-family:'ArialMT', 'Arial', sans-serif;font-size:16.611px;fill:#00e1ea;">P<tspan x="22.136px 34.716px 48.221px 61.726px 74.306px 85.969px 100.39px " y="115.154px 115.154px 115.154px 115.154px 115.154px 115.154px 115.154px ">ROGRAMS</tspan></text></g></svg>