<?xml version="1.0" encoding="UTF-8" standalone="no"?><!DOCTYPE svg PUBLIC "-//W3C//DTD SVG 1.1//EN" "http://www.w3.org/Graphics/SVG/1.1/DTD/svg11.dtd"><svg width="100%" height="100%" viewBox="0 0 120 120" version="1.1" xmlns="http://www.w3.org/2000/svg" xmlns:xlink="http://www.w3.org/1999/xlink" xml:space="preserve" xmlns:serif="http://www.serif.com/" style="fill-rule:evenodd;clip-rule:evenodd;stroke-linejoin:round;stroke-miterlimit:2;"><g id="Layer2"><g><g><path d="M113.724,51.944c-2.922,-1.979 -6.392,-2.77 -9.68,-1.979c-2.806,0.676 -5.344,2.22 -7.164,4.626c0.132,-1.341 0.203,-2.622 0.224,-3.834c0.015,-1.034 -0.004,-2.063 -0.053,-3.086c0.49,0.071 0.98,0.119 1.514,0.119c2.374,-0 4.566,-0.594 6.575,-1.781c2.922,-1.978 5.114,-4.945 5.845,-8.506l1.826,-7.715c0.182,-0.594 -0,-1.187 -0.183,-1.583c-0.182,-0.594 -0.548,-0.791 -1.096,-0.989c-6.94,-1.781 -13.88,2.769 -15.524,10.089l-0.282,1.195c-0.837,-3.399 -2.047,-6.656 -3.601,-9.699c5.619,-1.463 9.728,-6.883 9.728,-13.455l-0,-7.913c-0,-1.187 -0.731,-1.978 -1.826,-1.978c-7.123,-0 -12.785,6.133 -12.785,13.848l0,2.038c-0.753,-0.913 -1.542,-1.792 -2.374,-2.632c-0.73,-0.791 -1.826,-0.791 -2.557,0c-0.73,0.791 -0.73,1.978 -0,2.77c1.737,1.785 3.287,3.771 4.639,5.912c-2.901,-1.412 -6.098,-1.66 -9.205,-0.571l-6.94,2.572c-0.913,0.395 -1.461,1.582 -1.096,2.571c1.096,3.364 3.288,6.331 6.393,7.913c1.826,0.989 3.652,1.385 5.661,1.385c1.461,-0 2.74,-0.396 4.201,-0.594l5.821,-2.153c1.038,3.859 1.552,7.924 1.484,12.045c-0.021,1.1 -0.085,2.262 -0.202,3.477c-0.747,-3.527 -2.926,-6.657 -5.825,-8.423c-2.922,-1.78 -6.392,-2.374 -9.679,-1.385c-0.366,0.198 -0.914,0.594 -1.096,0.989c-0.183,0.594 -0.365,0.99 -0.183,1.583l1.827,7.715c1.461,6.133 6.757,10.287 12.419,10.287c0.059,0 0.117,-0.003 0.176,-0.004c-1.2,3.464 -2.908,7.115 -5.303,10.849c-0.135,-0.984 -0.371,-1.965 -0.718,-2.932c-1.278,-3.363 -3.652,-6.132 -6.757,-7.715l-6.575,-3.363c-0.913,-0.396 -2.009,-0 -2.374,0.989c-1.461,3.363 -1.643,7.122 -0.365,10.683c1.278,3.363 3.652,6.132 6.757,7.715l4.266,2.182c-1.352,1.515 -2.83,3.032 -4.448,4.544c-4.566,3.758 -9.68,5.539 -15.342,5.539c-5.661,-0 -10.592,-1.979 -15.158,-5.539c-1.649,-1.521 -3.154,-3.047 -4.528,-4.571l3.98,-2.156c3.104,-1.582 5.479,-4.154 6.757,-7.715c1.096,-3.56 1.096,-7.319 -0.365,-10.682c-0.365,-0.989 -1.462,-1.385 -2.374,-0.989l-6.575,3.363c-3.105,1.582 -5.479,4.154 -6.758,7.715c-0.275,0.895 -0.481,1.801 -0.612,2.711c-2.345,-3.657 -4.026,-7.232 -5.211,-10.628c0.054,0.001 0.108,0.004 0.162,0.004c2.192,-0 4.383,-0.792 6.392,-1.781c2.922,-1.978 4.931,-4.945 5.844,-8.506l1.827,-7.715c0.182,-0.594 -0,-1.187 -0.183,-1.583c-0.182,-0.593 -0.548,-0.791 -1.096,-0.989c-3.287,-0.989 -6.757,-0.396 -9.679,1.385c-2.765,1.871 -4.712,4.63 -5.687,7.939c-0.089,-1.04 -0.139,-2.04 -0.158,-2.994c-0.138,-4.2 0.355,-8.342 1.416,-12.267l5.89,2.178c1.461,0.594 2.739,0.791 4.2,0.791c2.009,0 3.835,-0.593 5.662,-1.384c2.922,-1.583 5.296,-4.352 6.392,-7.913c0.365,-1.187 -0.183,-2.176 -1.096,-2.572l-6.94,-2.571c-3.161,-1.108 -6.416,-0.829 -9.357,0.649c1.386,-2.172 2.988,-4.184 4.791,-5.991c0.73,-0.791 0.73,-1.978 0,-2.77c-0.73,-0.79 -1.826,-0.79 -2.557,0c-0.832,0.84 -1.622,1.72 -2.374,2.632l-0,-2.038c-0,-7.715 -5.662,-13.848 -12.784,-13.848c-1.096,0 -1.827,0.792 -1.827,1.979l0,7.913c0,6.571 4.109,11.992 9.729,13.455c-1.54,3.013 -2.742,6.238 -3.578,9.601l-0.306,-1.295c-1.827,-7.32 -8.767,-11.87 -15.524,-10.09c-0.365,0.198 -0.913,0.594 -1.096,0.99c-0.182,0.593 -0.182,0.989 -0.182,1.582l1.826,7.715c1.461,6.331 6.757,10.485 12.419,10.485c0.466,0 0.979,-0.052 1.516,-0.155c-0.05,1.036 -0.07,2.077 -0.055,3.123c0.047,1.302 0.147,2.691 0.317,4.153c-1.825,-2.477 -4.403,-4.06 -7.257,-4.747c-3.47,-0.791 -6.758,0 -9.68,1.978c-0.913,0.594 -1.095,1.781 -0.548,2.77l4.018,6.528c1.826,3.165 4.749,5.144 8.036,5.935c0.914,0.197 1.644,0.197 2.557,0.197c1.948,0 3.79,-0.46 5.526,-1.291c0.978,2.757 2.254,5.629 3.907,8.568c-6.07,-3.108 -13.414,-0.671 -16.738,5.582c-0.183,0.593 -0.366,0.989 -0.183,1.583c0.183,0.396 0.548,0.989 0.913,1.187l6.392,3.956c2.01,1.187 4.201,1.781 6.393,1.781c1.096,-0 2.191,-0.198 3.287,-0.396c2.608,-0.744 4.804,-2.269 6.431,-4.325c1.859,2.229 3.965,4.468 6.354,6.699c5.113,4.154 11.14,6.33 17.533,6.33c6.392,0 12.419,-2.176 17.715,-6.33c2.363,-2.203 4.452,-4.419 6.298,-6.629c2.483,2.96 6.037,4.65 9.591,4.65c2.192,0 4.383,-0.593 6.392,-1.78l6.393,-3.956c0.548,-0.198 0.73,-0.594 0.913,-1.187c0.183,-0.594 -0,-1.187 -0.183,-1.583c-3.445,-6.344 -10.627,-8.638 -16.488,-5.724c1.607,-2.891 2.853,-5.722 3.808,-8.449c1.742,0.876 3.609,1.314 5.375,1.314c4.018,0 8.219,-2.176 10.593,-6.33l4.018,-6.528c0.547,-0.989 0.364,-2.176 -0.549,-2.769Zm-14.246,-13.65c1.096,-4.55 5.114,-7.715 9.315,-7.518l-1.279,5.539c-0.73,2.572 -2.191,4.748 -4.2,6.133c-1.644,0.989 -3.287,1.385 -5.114,1.385l1.278,-5.539Zm-8.583,-18.991c-0,-4.748 3.104,-8.705 7.305,-9.694l-0,5.737c-0,4.748 -3.105,8.705 -7.305,9.694l-0,-5.737Zm-6.21,17.408c-2.192,0.99 -4.748,0.792 -6.94,-0.395c-1.644,-0.989 -2.922,-2.374 -3.835,-3.957l4.931,-1.978c4.383,-1.583 8.401,0.791 10.958,4.352l-5.114,1.978Zm1.096,22.75c-2.009,-1.385 -3.653,-3.561 -4.201,-6.132l-1.278,-5.539c1.826,-0 3.653,0.395 5.114,1.384c2.009,1.385 3.653,3.561 4.2,6.133l1.279,5.539c-1.826,-0 -3.47,-0.396 -5.114,-1.385Zm-47.12,14.837c0.914,-2.572 2.557,-4.352 4.749,-5.539l4.749,-2.374c0.365,1.78 0.182,3.758 -0.366,5.737c-0.913,2.571 -2.557,4.352 -4.748,5.539l-4.749,2.374c-0.365,-1.979 -0.365,-3.957 0.365,-5.737Zm-8.766,-18.991c0.548,-2.572 2.009,-4.748 4.201,-6.133c1.643,-0.989 3.287,-1.583 5.114,-1.384l-1.279,5.539c-0.548,2.571 -2.009,4.747 -4.201,6.132c-1.643,0.989 -3.287,1.583 -5.113,1.385l1.278,-5.539Zm-8.401,-39.961l-0,-5.737c4.2,0.989 7.305,4.946 7.305,9.694l-0,5.737c-4.201,-0.99 -7.305,-4.946 -7.305,-9.694Zm-9.315,20.97l-1.278,-5.539c4.201,-0.198 8.218,2.769 9.314,7.517l1.279,5.539c-4.201,0.198 -8.219,-2.968 -9.315,-7.517Zm6.027,27.102c-2.374,-0.396 -4.566,-1.979 -5.844,-4.155l-2.922,-4.747c1.644,-0.792 3.47,-0.99 5.296,-0.594c2.375,0.396 4.566,1.978 5.845,4.154l2.922,4.748c-1.644,0.791 -3.47,0.989 -5.297,0.594Zm22.647,-32.839l4.931,1.78c-0.913,1.781 -2.192,3.165 -3.835,3.957c-2.192,0.989 -4.566,1.187 -6.94,0.395l-5.114,-1.978c2.557,-3.363 6.575,-5.737 10.958,-4.154Zm-12.237,54.006c-2.374,0.593 -4.748,0.395 -6.94,-0.99l-4.565,-2.769c2.922,-3.561 7.67,-4.352 11.323,-2.176l4.566,2.967c-1.096,1.385 -2.557,2.374 -4.384,2.968Zm73.785,-3.759l-4.566,2.77c-3.653,2.374 -8.584,1.384 -11.323,-1.979l4.565,-2.769c3.653,-2.374 8.584,-1.385 11.324,1.978Zm-30.5,-8.704c-0.731,-1.979 -0.731,-3.957 -0.366,-5.737l4.749,2.373c2.192,1.187 3.835,2.968 4.749,5.539c0.73,1.979 0.73,3.957 0.365,5.738l-4.749,-2.374c-2.191,-1.187 -3.835,-3.165 -4.748,-5.539Zm35.248,-12.859c-2.374,3.957 -6.94,5.539 -10.958,3.759l2.74,-4.946c1.461,-2.176 3.47,-3.56 5.844,-4.154c1.826,-0.396 3.653,-0.198 5.296,0.594l-2.922,4.747Z" style="fill:#00e1ea;fill-rule:nonzero;"/></g></g><g transform="matrix(20,0,0,20,104.331,115.103)"></g><text x="16.001px" y="115.103px" style="font-family:'ArialMT', 'Arial', sans-serif;font-size:20px;fill:#00e1ea;">G<tspan x="32.261px 47.407px 61.45px 76.597px 90.64px " y="115.103px 115.103px 115.103px 115.103px 115.103px ">RADES</tspan></text></g></svg>