<?xml version="1.0" encoding="UTF-8" standalone="no"?><!DOCTYPE svg PUBLIC "-//W3C//DTD SVG 1.1//EN" "http://www.w3.org/Graphics/SVG/1.1/DTD/svg11.dtd"><svg width="100%" height="100%" viewBox="0 0 120 120" version="1.1" xmlns="http://www.w3.org/2000/svg" xmlns:xlink="http://www.w3.org/1999/xlink" xml:space="preserve" xmlns:serif="http://www.serif.com/" style="fill-rule:evenodd;clip-rule:evenodd;stroke-linecap:round;"><clipPath id="_clip1"><rect id="Home_Icon.svg" x="5.948" y="-2.549" width="108.104" height="108.104"/></clipPath><g clip-path="url(#_clip1)"><g id="SVGRepo_iconCarrier"><path d="M102.889,49.847l-0,6.739c-0,17.281 -0,25.922 -5.041,31.291c-5.041,5.368 -13.155,5.368 -29.383,5.368l-17.211,0c-16.227,0 -24.341,0 -29.382,-5.368c-5.042,-5.369 -5.042,-14.01 -5.042,-31.291l0,-6.739c0,-10.138 0,-15.207 2.234,-19.41c2.234,-4.202 6.316,-6.81 14.479,-12.026l8.606,-5.499c8.629,-5.513 12.943,-8.27 17.711,-8.27c4.767,-0 9.081,2.757 17.71,8.27l8.606,5.499c8.164,5.216 12.245,7.824 14.479,12.026" style="fill:none;fill-rule:nonzero;stroke:#00e1ea;stroke-width:6.55px;"/><path d="M72.768,75.525l-25.817,-0" style="fill:none;fill-rule:nonzero;stroke:#00e1ea;stroke-width:6.55px;"/></g></g><g transform="matrix(20,0,0,20,91.1426,115.113)"></g><text x="28.682px" y="115.113px" style="font-family:'ArialMT', 'Arial', sans-serif;font-size:20px;fill:#00e1ea;">H<tspan x="43.828px 60.088px 77.451px " y="115.113px 115.113px 115.113px ">OME</tspan></text></svg>