<?xml version="1.0" encoding="UTF-8" standalone="no"?><!DOCTYPE svg PUBLIC "-//W3C//DTD SVG 1.1//EN" "http://www.w3.org/Graphics/SVG/1.1/DTD/svg11.dtd"><svg width="100%" height="100%" viewBox="0 0 120 120" version="1.1" xmlns="http://www.w3.org/2000/svg" xmlns:xlink="http://www.w3.org/1999/xlink" xml:space="preserve" xmlns:serif="http://www.serif.com/" style="fill-rule:evenodd;clip-rule:evenodd;"><g id="Layer2"><clipPath id="_clip1"><rect id="Login_Logout_Icon.svg" x="8.751" y="-2.549" width="102.498" height="102.498"/></clipPath><g clip-path="url(#_clip1)"><g id="SVGRepo_iconCarrier"><circle cx="59.867" cy="35.112" r="13.455" style="fill:none;stroke:#00e1ea;stroke-width:6.73px;"/><path d="M86.637,84.445c-0.713,-12.968 -4.683,-22.424 -26.77,-22.424c-22.087,-0 -26.058,9.456 -26.771,22.424" style="fill:none;fill-rule:nonzero;stroke:#00e1ea;stroke-width:6.73px;stroke-linecap:round;"/><path d="M37.443,9.718c6.596,-3.816 14.255,-6 22.424,-6c24.769,-0 44.848,20.079 44.848,44.848c0,24.769 -20.079,44.849 -44.848,44.849c-24.769,-0 -44.849,-20.08 -44.849,-44.849c0,-8.168 2.184,-15.827 6.001,-22.424" style="fill:none;fill-rule:nonzero;stroke:#00e1ea;stroke-width:6.73px;stroke-linecap:round;"/></g></g><g transform="matrix(14.3038,0,0,14.3038,121.065,113.073)"></g><text x="-1.048px" y="113.073px" style="font-family:'ArialMT', 'Arial', sans-serif;font-size:14.304px;fill:#00e1ea;">L<tspan x="7.41px 19.039px 30.416px 34.642px 39.119px 49.7px 53.925px 62.383px 74.012px 85.39px 89.615px 101.244px 112.076px " y="113.073px 113.073px 113.073px 113.073px 113.073px 113.073px 113.073px 113.073px 113.073px 113.073px 113.073px 113.073px 113.073px ">OG IN/LOG OUT</tspan></text></g></svg>