<?xml version="1.0" encoding="UTF-8" standalone="no"?><!DOCTYPE svg PUBLIC "-//W3C//DTD SVG 1.1//EN" "http://www.w3.org/Graphics/SVG/1.1/DTD/svg11.dtd"><svg width="100%" height="100%" viewBox="0 0 120 120" version="1.1" xmlns="http://www.w3.org/2000/svg" xmlns:xlink="http://www.w3.org/1999/xlink" xml:space="preserve" xmlns:serif="http://www.serif.com/" style="fill-rule:evenodd;clip-rule:evenodd;stroke-linecap:round;"><g id="Layer2"><clipPath id="_clip1"><rect id="Profile_Icon.svg" x="6.975" y="-0.784" width="106.05" height="101.326"/></clipPath><g clip-path="url(#_clip1)"><g id="SVGRepo_iconCarrier"><path d="M100.28,26.919l-0,-1.26c-0,-9.811 -0,-14.717 -3.177,-17.401c-3.175,-2.685 -8.03,-1.877 -17.74,-0.263l-4.735,0.787c-7.366,1.225 -11.049,1.838 -14.766,1.838c-3.716,-0 -7.399,-0.613 -14.765,-1.838l-4.736,-0.787c-9.709,-1.614 -14.564,-2.422 -17.74,0.263c-3.176,2.684 -3.176,7.59 -3.176,17.401l-0,23.662c-0,24.598 19.036,36.535 30.98,41.604c3.24,1.375 4.86,2.063 9.437,2.063c4.578,-0 6.198,-0.688 9.437,-2.063c11.944,-5.069 30.981,-17.006 30.981,-41.604l-0,-4.481" style="fill:none;fill-rule:nonzero;stroke:#00e1ea;stroke-width:6.73px;"/><path d="M35.163,35.88c1.307,-2.611 4.835,-4.481 8.981,-4.481c4.147,0 7.675,1.87 8.982,4.481" style="fill:none;fill-rule:nonzero;stroke:#00e1ea;stroke-width:6.73px;"/><path d="M66.599,35.88c1.307,-2.611 4.834,-4.481 8.981,-4.481c4.147,0 7.675,1.87 8.982,4.481" style="fill:none;fill-rule:nonzero;stroke:#00e1ea;stroke-width:6.73px;"/><path d="M44.144,58.281c0,0 4.716,4.481 15.718,4.481c11.003,-0 15.718,-4.481 15.718,-4.481" style="fill:none;fill-rule:nonzero;stroke:#00e1ea;stroke-width:6.73px;"/></g></g><g transform="matrix(20,0,0,20,105.015,115.113)"></g><text x="14.868px" y="115.113px" style="font-family:'ArialMT', 'Arial', sans-serif;font-size:20px;fill:#00e1ea;">P<tspan x="28.911px 44.058px 60.317px 73.237px 79.497px 91.323px " y="115.113px 115.113px 115.113px 115.113px 115.113px 115.113px ">ROFILE</tspan></text></g></svg>