<?xml version="1.0" encoding="UTF-8" standalone="no"?><!DOCTYPE svg PUBLIC "-//W3C//DTD SVG 1.1//EN" "http://www.w3.org/Graphics/SVG/1.1/DTD/svg11.dtd"><svg width="100%" height="100%" viewBox="0 0 120 120" version="1.1" xmlns="http://www.w3.org/2000/svg" xmlns:xlink="http://www.w3.org/1999/xlink" xml:space="preserve" xmlns:serif="http://www.serif.com/" style="fill-rule:evenodd;clip-rule:evenodd;stroke-linejoin:round;stroke-miterlimit:2;"><g id="Layer2"><path d="M46.803,49.167c0,-0.938 0.732,-1.7 1.633,-1.7l1.632,-0c1.802,-0 3.264,1.523 3.264,3.4l0,22.101c0,0.939 -0.731,1.7 -1.632,1.7c-0.901,0 -1.632,-0.761 -1.632,-1.7l-0,-22.101l-1.632,0c-0.901,0 -1.633,-0.762 -1.633,-1.7Zm17.956,1.7l1.633,0l-0,22.101c-0,0.939 0.731,1.7 1.632,1.7c0.901,0 1.632,-0.761 1.632,-1.7l0,-22.101c0,-1.877 -1.462,-3.4 -3.264,-3.4l-1.633,-0c-0.901,-0 -1.632,0.762 -1.632,1.7c0,0.938 0.731,1.7 1.632,1.7Zm40.81,-27.201l0,64.603c0,5.634 -4.384,10.2 -9.794,10.2l-71.825,0c-5.41,0 -9.795,-4.566 -9.795,-10.2l0,-64.603c0,-5.634 4.385,-10.201 9.795,-10.201l3.264,0l0,-3.4c0,-3.757 2.922,-6.8 6.53,-6.8c3.608,-0 6.529,3.043 6.529,6.8l0,3.4l39.178,0l-0,-3.4c-0,-3.757 2.922,-6.8 6.529,-6.8c3.608,-0 6.53,3.043 6.53,6.8l0,3.4l3.265,0c5.41,0 9.794,4.567 9.794,10.201Zm-22.853,-3.4c-0,1.873 1.466,3.4 3.264,3.4c1.799,-0 3.265,-1.527 3.265,-3.4l0,-10.201c0,-1.873 -1.466,-3.4 -3.265,-3.4c-1.798,-0 -3.264,1.527 -3.264,3.4l-0,10.201Zm-52.237,-0c0,1.873 1.466,3.4 3.265,3.4c1.799,-0 3.265,-1.527 3.265,-3.4l-0,-10.201c-0,-1.873 -1.466,-3.4 -3.265,-3.4c-1.799,-0 -3.265,1.527 -3.265,3.4l0,10.201Zm71.747,68.826c-1.727,1.584 -3.97,2.577 -6.451,2.577l-71.825,0c-2.482,0 -4.725,-0.993 -6.451,-2.577c0.394,3.356 3.12,5.977 6.451,5.977l71.825,0c3.33,0 6.056,-2.621 6.451,-5.977Zm0.078,-51.826l-84.884,0l0,44.203c0,3.75 2.929,6.8 6.53,6.8l71.825,0c3.601,0 6.529,-3.05 6.529,-6.8l0,-44.203Zm0,-13.6c0,-3.751 -2.928,-6.801 -6.529,-6.801l-3.265,0l0,3.401c0,3.757 -2.922,6.8 -6.53,6.8c-3.607,-0 -6.529,-3.043 -6.529,-6.8l-0,-3.401l-39.178,0l0,3.401c0,3.757 -2.921,6.8 -6.529,6.8c-3.608,-0 -6.53,-3.043 -6.53,-6.8l0,-3.401l-3.264,0c-3.601,0 -6.53,3.05 -6.53,6.801l0,10.2l84.884,0l0,-10.2Z" style="fill:#00e1ea;fill-rule:nonzero;stroke:#00e1ea;stroke-width:0.08px;"/><g transform="matrix(20,0,0,20,117.358,115.103)"></g><text x="3.169px" y="115.103px" style="font-family:'ArialMT', 'Arial', sans-serif;font-size:20px;fill:#00e1ea;">S<tspan x="17.212px 32.358px 47.505px 61.548px 76.694px 91.841px 103.667px " y="115.103px 115.103px 115.103px 115.103px 115.103px 115.103px 115.103px ">CHEDULE</tspan></text></g></svg>